Hanif_Deep_5_0_grf.mot
version=1
nRows=58
nColumns=19
inDegrees=yes
endheader
time	right_ground_force_vx	right_ground_force_vy	right_ground_force_vz	right_ground_force_px	right_ground_force_py	right_ground_force_pz	right_ground_torque_x	right_ground_torque_y	right_ground_torque_z	left_ground_force_vx	left_ground_force_vy	left_ground_force_vz	left_ground_force_px	left_ground_force_py	left_ground_force_pz	left_ground_torque_x	left_ground_torque_y	left_ground_torque_z
6.365000	-7.827210	324.880000	-15.801700	0.207090	0.000000	-1.439300	-21.883800	8.506430	1.869800	-1.527480	317.714000	26.356200	0.240348	0.000000	-0.989165	27.427000	-11.570700	11.936600
6.370000	-8.010240	324.025000	-16.290300	0.207690	0.000000	-1.438260	-22.167700	8.426750	2.047130	-1.914120	317.142000	27.271400	0.241169	0.000000	-0.988839	27.286700	-11.491800	12.150600
6.375000	-8.649350	323.477000	-16.775700	0.208236	0.000000	-1.438420	-22.096400	8.385220	2.206080	-2.876200	315.250000	28.389200	0.242381	0.000000	-0.989207	27.272100	-11.423500	12.418000
6.380000	-8.902720	322.525000	-16.687300	0.208803	0.000000	-1.438570	-21.991400	8.407340	2.380650	-3.446230	315.098000	29.384800	0.242889	0.000000	-0.988867	27.171200	-11.435900	12.537600
6.385000	-8.633190	321.642000	-17.001900	0.208921	0.000000	-1.439130	-21.744300	8.339970	2.405990	-4.243380	312.265000	30.469500	0.243336	0.000000	-0.990016	27.314800	-11.454600	12.507500
6.390000	-9.053620	319.189000	-17.406800	0.209236	0.000000	-1.437750	-22.034600	8.360050	2.467210	-4.853560	311.662000	30.962600	0.244182	0.000000	-0.989332	27.067800	-11.302000	12.741300
6.395000	-9.269240	317.531000	-17.184900	0.209639	0.000000	-1.438600	-21.657100	8.296420	2.586830	-4.850960	308.784000	31.477100	0.244863	0.000000	-0.989885	26.991300	-11.333000	12.798800
6.400000	-9.768900	316.475000	-17.058300	0.209622	0.000000	-1.438280	-21.699200	8.210690	2.575770	-5.541570	307.536000	32.670400	0.245647	0.000000	-0.989483	26.780500	-11.220100	12.953700
6.405000	-10.009300	313.793000	-17.851600	0.210605	0.000000	-1.438800	-21.362800	8.192870	2.834300	-5.628280	305.294000	32.819400	0.245821	0.000000	-0.989711	26.661300	-11.276300	12.885700
6.410000	-10.061000	312.759000	-18.581100	0.210597	0.000000	-1.438150	-21.499100	8.155710	2.800870	-5.525730	302.885000	33.466700	0.246493	0.000000	-0.989727	26.454400	-11.286200	12.954000
6.415000	-10.639300	310.954000	-19.283700	0.210983	0.000000	-1.437860	-21.482800	8.103380	2.880880	-5.133870	301.130000	33.846900	0.246448	0.000000	-0.989452	26.207200	-11.324600	12.840800
6.420000	-10.904800	309.467000	-19.725500	0.211662	0.000000	-1.437270	-21.567900	7.953400	3.068990	-4.937840	302.283000	33.629900	0.246750	0.000000	-0.989067	26.183800	-11.376700	12.993800
6.425000	-11.642400	309.315000	-21.104400	0.212318	0.000000	-1.438350	-21.241200	7.898080	3.235370	-4.690330	299.041000	33.904800	0.247041	0.000000	-0.989148	25.922100	-11.406900	12.909000
6.430000	-11.825000	306.842000	-21.567300	0.212335	0.000000	-1.437700	-21.280600	7.857750	3.194460	-4.723190	300.409000	33.671000	0.246550	0.000000	-0.989136	26.038000	-11.463200	12.829400
6.435000	-12.362400	304.477000	-22.630100	0.212515	0.000000	-1.437190	-21.290800	7.774610	3.190660	-4.742620	301.344000	34.226500	0.246387	0.000000	-0.989003	26.078000	-11.438500	12.813400
6.440000	-12.236100	302.225000	-23.664400	0.213513	0.000000	-1.436620	-21.300300	7.689380	3.440360	-4.709260	300.849000	33.503200	0.246392	0.000000	-0.988994	26.032600	-11.454800	12.809200
6.445000	-12.538200	300.640000	-24.703200	0.213793	0.000000	-1.436690	-21.178200	7.623840	3.476900	-4.452750	301.212000	32.724400	0.246381	0.000000	-0.989253	26.134200	-11.535300	12.840300
6.450000	-12.482600	300.338000	-25.717000	0.214646	0.000000	-1.436010	-21.358700	7.623270	3.703550	-3.547980	300.707000	32.966400	0.246717	0.000000	-0.988241	25.754500	-11.564800	12.915900
6.455000	-12.790200	299.263000	-26.486400	0.214269	0.000000	-1.436020	-21.291100	7.619100	3.550070	-2.985750	301.049000	32.603300	0.246033	0.000000	-0.989530	26.152200	-11.580700	12.738400
6.460000	-13.256900	299.235000	-27.520500	0.214176	0.000000	-1.435500	-21.457400	7.577720	3.494860	-2.263750	300.801000	32.648200	0.246511	0.000000	-0.988272	25.728200	-11.719800	12.862500
6.465000	-13.884400	299.189000	-28.111500	0.215372	0.000000	-1.434980	-21.620600	7.460740	3.846220	-2.066910	300.051000	32.085600	0.246046	0.000000	-0.988726	25.794200	-11.734800	12.700300
6.470000	-14.487600	297.733000	-29.071200	0.216088	0.000000	-1.435680	-21.324800	7.398390	4.013750	-1.863140	300.588000	32.121500	0.245902	0.000000	-0.987554	25.481200	-11.842100	12.672900
6.475000	-15.006000	297.213000	-29.616600	0.216211	0.000000	-1.434700	-21.587300	7.275570	4.034460	-1.251470	300.755000	31.443600	0.245556	0.000000	-0.988373	25.719900	-11.833200	12.602600
6.480000	-14.892600	295.914000	-30.224000	0.216649	0.000000	-1.434910	-21.423300	7.149990	4.139660	-1.016390	300.113000	31.980500	0.245887	0.000000	-0.987903	25.515600	-11.802600	12.660700
6.485000	-15.241100	294.279000	-31.243600	0.217081	0.000000	-1.433910	-21.610300	7.082660	4.214740	-0.998458	299.842000	31.584800	0.245795	0.000000	-0.988362	25.630100	-11.879600	12.623200
6.490000	-16.031000	293.068000	-32.022100	0.216990	0.000000	-1.432990	-21.810500	6.945810	4.151930	-0.654867	299.848000	31.313900	0.245060	0.000000	-0.987860	25.468300	-11.952000	12.404400
6.495000	-15.633600	290.205000	-32.253300	0.217673	0.000000	-1.432800	-21.642000	6.843930	4.304300	-0.013708	299.647000	31.393700	0.244659	0.000000	-0.988074	25.492700	-11.961100	12.275600
6.500000	-15.755000	290.661000	-32.669700	0.217848	0.000000	-1.433230	-21.548400	6.785840	4.361800	1.035000	298.397000	31.272800	0.244166	0.000000	-0.988394	25.444800	-12.025300	12.072800
6.505000	-16.245700	290.159000	-33.051000	0.217778	0.000000	-1.432220	-21.816500	6.689640	4.326920	0.963467	298.863000	30.829200	0.243881	0.000000	-0.987519	25.225600	-12.011500	12.023500
6.510000	-16.696000	289.450000	-33.427600	0.217529	0.000000	-1.432150	-21.795900	6.618870	4.234530	1.419290	298.614000	31.603800	0.244120	0.000000	-0.987959	25.319900	-12.017400	12.063300
6.515000	-17.097000	286.803000	-34.384300	0.218019	0.000000	-1.431490	-21.795200	6.500130	4.310130	1.086660	296.865000	31.153100	0.244026	0.000000	-0.988357	25.300700	-12.085000	11.955200
6.520000	-17.204400	288.120000	-34.860200	0.217759	0.000000	-1.431250	-21.963600	6.480150	4.251910	1.075710	297.173000	31.669000	0.243839	0.000000	-0.987701	25.132500	-12.054800	11.900900
6.525000	-17.346000	288.334000	-35.192600	0.218442	0.000000	-1.431700	-21.843900	6.337690	4.465720	1.231110	297.768000	31.639700	0.242992	0.000000	-0.987584	25.142700	-12.049500	11.677000
6.530000	-17.345600	288.299000	-35.625700	0.219271	0.000000	-1.431320	-21.945900	6.310540	4.700680	1.868840	297.387000	31.106300	0.243607	0.000000	-0.988089	25.237800	-12.096600	11.861400
6.535000	-17.220500	287.745000	-35.939300	0.218629	0.000000	-1.430550	-22.122100	6.270760	4.498420	2.123120	298.515000	31.339800	0.242300	0.000000	-0.987551	25.164400	-12.101700	11.514800
6.540000	-17.238800	286.109000	-36.627200	0.219955	0.000000	-1.429500	-22.295500	6.164930	4.844930	2.590870	295.760000	31.578400	0.243117	0.000000	-0.988080	25.069800	-12.229700	11.615400
6.545000	-17.646300	287.690000	-36.351000	0.219038	0.000000	-1.430200	-22.223700	6.129220	4.620880	3.186710	296.947000	31.226300	0.242729	0.000000	-0.987779	25.060700	-12.241600	11.569700
6.550000	-18.180900	287.476000	-36.601600	0.219453	0.000000	-1.430420	-22.150900	6.055130	4.736950	3.009570	296.498000	31.326500	0.242071	0.000000	-0.988050	25.108900	-12.238000	11.347300
6.555000	-18.018600	286.504000	-36.760800	0.220021	0.000000	-1.429710	-22.274000	5.986740	4.885950	2.937010	296.413000	31.409500	0.241789	0.000000	-0.988008	25.091800	-12.237400	11.255500
6.560000	-18.409600	286.840000	-36.788000	0.219213	0.000000	-1.430220	-22.161200	5.943830	4.660520	3.292900	295.608000	31.206100	0.241775	0.000000	-0.987959	24.996700	-12.174500	11.230800
6.565000	-18.401300	284.424000	-36.844100	0.219098	0.000000	-1.429920	-22.065000	5.899420	4.577610	3.460420	293.479000	31.152500	0.242152	0.000000	-0.988384	24.934000	-12.158400	11.251000
6.570000	-18.093000	284.284000	-36.694800	0.219184	0.000000	-1.429800	-22.075300	5.792550	4.618920	4.172310	293.336000	30.746400	0.240901	0.000000	-0.987677	24.689200	-12.133800	10.894600
6.575000	-17.982200	282.124000	-36.256700	0.219411	0.000000	-1.430090	-21.823700	5.744200	4.653250	4.851480	291.165000	30.804000	0.241046	0.000000	-0.988273	24.654000	-12.157800	10.842600
6.580000	-18.252100	280.567000	-35.759700	0.218931	0.000000	-1.429850	-21.777100	5.610380	4.505390	4.776240	291.375000	30.352200	0.240409	0.000000	-0.987545	24.461900	-12.140000	10.679300
6.585000	-18.122900	279.567000	-35.736400	0.218379	0.000000	-1.429970	-21.662900	5.545030	4.337090	4.776170	290.553000	30.702300	0.240557	0.000000	-0.987887	24.492200	-12.109100	10.678700
6.590000	-18.119300	279.604000	-35.841600	0.218331	0.000000	-1.430070	-21.640400	5.599430	4.315410	4.718580	289.361000	30.745500	0.240210	0.000000	-0.987385	24.247200	-12.096500	10.523500
6.595000	-17.908900	280.304000	-35.469500	0.217039	0.000000	-1.430430	-21.587500	5.600850	3.972460	4.671920	288.836000	30.966600	0.240021	0.000000	-0.987768	24.314500	-12.111500	10.436200
6.600000	-17.837700	279.312000	-35.518200	0.217459	0.000000	-1.429970	-21.638500	5.561090	4.075840	4.571310	288.800000	31.111600	0.240162	0.000000	-0.987272	24.172300	-12.084100	10.473100
6.605000	-17.429900	277.395000	-35.033200	0.217220	0.000000	-1.430720	-21.276400	5.562690	3.984660	4.441760	289.216000	31.756100	0.239268	0.000000	-0.986897	24.105300	-11.969900	10.220300
6.610000	-17.510100	277.094000	-34.402700	0.216719	0.000000	-1.430430	-21.344200	5.646530	3.838800	4.615880	287.746000	31.996900	0.239696	0.000000	-0.987718	24.211400	-11.999100	10.272900
6.615000	-16.796600	278.118000	-34.161900	0.216417	0.000000	-1.429870	-21.558100	5.633840	3.785690	4.573660	288.748000	32.620500	0.238853	0.000000	-0.986363	23.909300	-11.860500	10.065200
6.620000	-16.467400	278.199000	-33.553400	0.215908	0.000000	-1.430950	-21.252300	5.602490	3.665070	4.661830	286.535000	32.776200	0.239120	0.000000	-0.987504	24.046400	-11.927300	10.036700
6.625000	-16.254200	277.791000	-33.262400	0.215764	0.000000	-1.431110	-21.169500	5.559040	3.630390	4.319130	287.785000	32.728900	0.238797	0.000000	-0.987211	24.080400	-11.901100	9.997480
6.630000	-15.781900	276.801000	-32.941300	0.214756	0.000000	-1.431140	-21.084800	5.677980	3.325930	4.760770	287.467000	32.772800	0.238754	0.000000	-0.986951	23.964600	-11.846500	9.980380
6.635000	-14.660200	277.065000	-33.169800	0.214764	0.000000	-1.431350	-21.022200	5.790570	3.325070	5.206640	285.687000	32.576700	0.238963	0.000000	-0.987217	23.874500	-11.868900	9.972420
6.640000	-14.335600	275.742000	-32.758600	0.214145	0.000000	-1.430990	-21.016400	5.768410	3.142330	5.057670	286.554000	32.777300	0.237780	0.000000	-0.986618	23.781600	-11.822400	9.663710
6.645000	-13.986300	274.328000	-32.682300	0.214132	0.000000	-1.430570	-21.010900	5.657810	3.132230	5.447380	285.901000	32.590300	0.238340	0.000000	-0.987105	23.853300	-11.807600	9.810010
6.650000	-13.514200	274.839000	-32.845000	0.213792	0.000000	-1.430780	-20.984400	5.776870	3.032800	6.024420	286.466000	32.345000	0.237379	0.000000	-0.986982	23.846300	-11.790400	9.570270
